<svg xmlns="http://www.w3.org/2000/svg" viewBox="0 0 150 102.76"><defs><style>.cls-1{fill:#2c353a;}</style></defs><g id="图层_2" data-name="图层 2"><g id="レイヤー_1" data-name="レイヤー 1"><rect class="cls-1" x="64.05" width="21.91" height="102.75"/><path class="cls-1" d="M51.77,61.23H33.05c-7.48-1.92-4.94-6.54-4.08-7.8L49.2,30.23a3.61,3.61,0,0,0-2.73-6H10.23C24,27.78,16.3,37.09,16.3,37.09h0L1,54.67a4,4,0,0,0,3,6.56H32.75L1,96.16A3.94,3.94,0,0,0,4,102.75H42.07c-11.86-6-7.61-13.43-5.51-16.09l17.8-19.59A3.5,3.5,0,0,0,51.77,61.23Z"/><path class="cls-1" d="M148.5,93.17,120.87,62.74a2.28,2.28,0,0,1,0-3.05l23.81-27.31a4.91,4.91,0,0,0-3.7-8.13H108c10,2.56,9.43,8.48,7.21,11L95.94,57.39A5.71,5.71,0,0,0,96,65l19.52,21.5c2,2.49,6.76,10.12-5.36,16.26h34.08A5.73,5.73,0,0,0,148.5,93.17Z"/></g></g></svg>